<?xml version="1.0" encoding="UTF-8"?>
<svg id="Layer_1" xmlns="http://www.w3.org/2000/svg" version="1.1" viewBox="0 0 40 40">
  <!-- Generator: Adobe Illustrator 29.6.1, SVG Export Plug-In . SVG Version: 2.1.1 Build 9)  -->
  <defs>
    <style>
      .st0 {
        fill: #da1f26;
      }
    </style>
  </defs>
  <g>
    <path d="M28.13,1.06c.95.24,1.59.95,1.68,1.93v15.63l7.59,3.4c.27.14.49.39.55.69.09.41.08,1.83-.08,2.19-.29.64-1.12.48-1.13.55v9.58c1.41-.16,1.33,1.29,1.24,2.3-.05.63-.31,1.03-.98,1.06l-18.78-.04c-.4-.13-.52-.43-.7-.77H4.33c-1.06-.14-1.77-1.02-1.8-2.07V3.07c.08-1.03.69-1.74,1.68-2h23.92,0ZM7.42,2.16h-3.1c-.22,0-.69.54-.69.77v2.37h3.79v-3.14ZM28.71,5.29v-2.37c0-.23-.48-.77-.69-.77H8.51v3.14s20.2,0,20.2,0ZM28.71,18.13V6.5l-.11-.11H3.74l-.11.11v29.24c0,.27.49.77.77.77h13.16c-.13-.94.27-1.51,1.24-1.5v-9.4c-.03-.27-.33-.15-.53-.2-.3-.07-.6-.33-.68-.64s-.08-1.57-.03-1.93.23-.68.57-.82l9.28-4.14c.45-.22.9.08,1.31.25h0ZM36.88,24.32v-1.28l-9.08-4.12-9.15,4.01v1.39s18.23,0,18.23,0ZM21.05,35.04v-9.52l-.11-.11h-1.06v9.62h1.17ZM23.61,25.42h-1.46v9.62h1.46v-9.62ZM25.87,25.42h-1.06l-.11.11v9.52h1.17v-9.62h0ZM28.49,25.42h-1.42l-.11.11v9.52h1.53v-9.62h0ZM30.75,25.42h-1.17v9.62h1.17v-9.62ZM33.38,25.42h-1.53v9.62h1.53v-9.62ZM35.64,25.42h-1.17v9.62h1.17v-9.62ZM36.88,36.14h-18.23v1.17h18.23v-1.17Z"/>
    <path class="st0" d="M36.88,24.32h-18.23v-1.39l9.15-4.01,9.08,4.12s0,1.28,0,1.28ZM27.31,20.11c-1.77.3-1.75,3.28.2,3.48,2.7.27,2.68-3.97-.2-3.48Z"/>
    <rect class="st0" x="18.65" y="36.14" width="18.23" height="1.17"/>
    <path d="M11.27,7.87c4.65-.43,7.87,4.59,5.52,8.66-2.35,4.07-8.34,3.7-10.24-.56-1.6-3.6.8-7.73,4.71-8.1h0ZM13.83,15.94c.49.16.88.62,1.2,1.02,2.59-2.42,1.52-6.81-1.88-7.82-4.24-1.26-7.73,3.56-5.15,7.19.08.11.52.72.64.63.21-.46.7-.77,1.1-1.06-.87-.98-1.24-2.18-.74-3.44.84-2.12,3.73-2.53,5.15-.75,1.09,1.35.8,3.02-.33,4.23h.01ZM11.34,11.73c-2,.34-1.94,3.76.43,3.84,2.66.09,2.67-4.36-.43-3.84ZM14.13,17.69c-.11-.48-1.12-1.13-1.55-1.14-.22,0-.51.13-.74.13-.25,0-.56-.14-.79-.13-.5.03-1.36.67-1.58,1.14,1.51.76,3.16.79,4.67,0h-.01Z"/>
    <path d="M27.31,20.11c2.88-.49,2.9,3.76.2,3.48-1.95-.2-1.97-3.18-.2-3.48ZM27.27,22.33c.69.63,1.61-.48.92-1.03s-1.52.48-.92,1.03Z"/>
    <path class="st0" d="M13.83,15.94c1.13-1.21,1.42-2.88.33-4.23-1.43-1.77-4.32-1.36-5.15.75-.5,1.26-.12,2.46.74,3.44-.4.29-.89.6-1.1,1.06-.12.08-.56-.52-.64-.63-2.58-3.62.9-8.45,5.15-7.19,3.39,1.01,4.47,5.4,1.88,7.82-.32-.4-.71-.86-1.2-1.02h-.01Z"/>
    <path class="st0" d="M11.34,11.73c3.1-.52,3.09,3.94.43,3.84-2.37-.08-2.43-3.51-.43-3.84Z"/>
    <path class="st0" d="M14.13,17.69c-1.51.79-3.16.76-4.67,0,.21-.47,1.07-1.11,1.58-1.14.23-.02.55.13.79.13s.52-.13.74-.13c.44,0,1.44.66,1.55,1.14h.01Z"/>
  </g>
  <rect x="18.61" y="9.44" width="8.46" height="1.13" rx=".53" ry=".53"/>
  <rect x="18.61" y="10.84" width="8.46" height="1.13" rx=".53" ry=".53"/>
  <rect x="18.61" y="12.23" width="8.46" height="1.13" rx=".53" ry=".53"/>
  <rect x="7.13" y="23.61" width="8.46" height="1.13" rx=".53" ry=".53"/>
  <rect x="7.13" y="25.42" width="8.46" height="1.13" rx=".53" ry=".53"/>
  <rect x="7.13" y="27.23" width="8.46" height="1.13" rx=".53" ry=".53"/>
  <rect x="7.13" y="29.04" width="8.46" height="1.13" rx=".53" ry=".53"/>
</svg>